<svg xmlns="http://www.w3.org/2000/svg" height="20" viewBox="0 96 960 960" width="20"><path d="M479.788 864Q450 864 429 842.788q-21-21.213-21-51Q408 762 429.212 741q21.213-21 51-21Q510 720 531 741.212q21 21.213 21 51Q552 822 530.788 843q-21.213 21-51 21Zm0-216Q450 648 429 626.788q-21-21.213-21-51Q408 546 429.212 525q21.213-21 51-21Q510 504 531 525.212q21 21.213 21 51Q552 606 530.788 627q-21.213 21-51 21Zm0-216Q450 432 429 410.788q-21-21.213-21-51Q408 330 429.212 309q21.213-21 51-21Q510 288 531 309.212q21 21.213 21 51Q552 390 530.788 411q-21.213 21-51 21Z"/></svg>